<?xml version="1.0" standalone="no"?>
<!DOCTYPE svg PUBLIC "-//W3C//DTD SVG 20010904//EN"
 "http://www.w3.org/TR/2001/REC-SVG-20010904/DTD/svg10.dtd">
<svg version="1.0" xmlns="http://www.w3.org/2000/svg"
 width="4923.000000pt" height="4922.000000pt" viewBox="0 0 4923.000000 4922.000000"
 preserveAspectRatio="xMidYMid meet">

<g transform="translate(0.000000,4922.000000) scale(0.100000,-0.100000)"
fill="#000000" stroke="none">
<path d="M24190 48230 c-14 -4 -131 -8 -260 -9 -129 -1 -311 -6 -405 -11 -320
-20 -610 -40 -785 -55 -96 -8 -204 -17 -240 -20 -36 -3 -72 -7 -80 -10 -8 -2
-78 -9 -155 -14 -77 -5 -189 -16 -250 -25 -60 -8 -148 -20 -195 -25 -222 -26
-499 -64 -630 -86 -47 -9 -96 -15 -110 -15 -14 0 -57 -7 -95 -15 -39 -9 -106
-20 -150 -25 -44 -5 -111 -16 -150 -24 -165 -34 -292 -56 -322 -56 -17 0 -44
-5 -60 -11 -15 -6 -62 -17 -103 -24 -177 -31 -508 -100 -830 -174 -47 -11
-128 -30 -180 -42 -52 -11 -112 -27 -133 -35 -20 -8 -46 -14 -57 -14 -11 0
-55 -9 -98 -21 -42 -12 -111 -30 -152 -40 -221 -57 -309 -81 -382 -104 -26 -9
-66 -19 -90 -25 -24 -5 -63 -15 -88 -24 -25 -8 -85 -26 -135 -40 -49 -13 -103
-29 -120 -34 -16 -6 -64 -20 -105 -33 -118 -35 -202 -61 -240 -74 -19 -7 -150
-50 -290 -95 -258 -83 -282 -91 -380 -128 -30 -12 -68 -24 -84 -28 -16 -4 -41
-13 -55 -20 -14 -8 -33 -14 -41 -14 -8 0 -33 -9 -55 -20 -22 -11 -44 -19 -50
-20 -5 0 -32 -9 -60 -19 -89 -35 -238 -92 -295 -112 -30 -11 -75 -29 -100 -39
-25 -10 -110 -44 -190 -75 -161 -63 -313 -126 -376 -156 -23 -10 -47 -19 -54
-19 -6 0 -24 -6 -38 -13 -40 -21 -82 -39 -252 -112 -85 -37 -188 -82 -228
-101 -40 -19 -75 -34 -77 -34 -6 0 -177 -80 -195 -91 -8 -5 -26 -14 -40 -20
-57 -24 -480 -227 -535 -256 -11 -6 -42 -22 -70 -36 -184 -92 -412 -211 -425
-222 -8 -7 -26 -16 -39 -20 -13 -4 -46 -20 -73 -36 -27 -16 -64 -36 -81 -44
-18 -8 -39 -19 -47 -25 -28 -19 -209 -120 -215 -120 -5 0 -537 -307 -589 -340
-13 -8 -54 -33 -91 -55 -37 -22 -75 -45 -84 -50 -9 -6 -49 -30 -89 -55 -40
-25 -103 -64 -140 -87 -37 -23 -89 -56 -117 -73 -27 -17 -69 -43 -92 -58 -23
-15 -79 -51 -125 -80 -82 -53 -141 -92 -228 -152 -25 -17 -65 -45 -90 -61 -25
-16 -54 -35 -64 -41 -40 -26 -217 -148 -294 -202 -29 -20 -76 -52 -104 -73
-29 -20 -65 -46 -80 -57 -14 -12 -61 -46 -105 -76 -318 -223 -876 -655 -1273
-985 -63 -53 -148 -122 -187 -154 -40 -32 -114 -96 -164 -142 -50 -46 -98 -88
-107 -94 -20 -12 -66 -53 -166 -146 -39 -36 -139 -127 -222 -202 -510 -459
-1106 -1056 -1609 -1612 -95 -104 -188 -206 -206 -226 -61 -65 -94 -104 -104
-121 -5 -9 -35 -43 -65 -75 -125 -134 -565 -669 -788 -958 -34 -44 -68 -87
-75 -95 -8 -8 -25 -31 -38 -50 -13 -19 -58 -78 -99 -132 -41 -54 -100 -131
-130 -173 -30 -41 -71 -97 -91 -123 -37 -48 -74 -100 -135 -187 -19 -27 -63
-90 -99 -140 -36 -49 -94 -133 -130 -185 -35 -52 -77 -113 -92 -136 -15 -22
-32 -47 -38 -56 -5 -8 -23 -35 -40 -59 -16 -24 -34 -52 -40 -61 -5 -9 -40 -61
-76 -115 -78 -115 -182 -274 -189 -288 -8 -16 -58 -95 -101 -158 -21 -32 -39
-59 -39 -62 0 -3 -96 -162 -130 -215 -5 -8 -27 -44 -47 -78 -21 -35 -45 -75
-53 -88 -35 -54 -380 -654 -380 -659 0 -4 -19 -39 -42 -78 -46 -79 -109 -195
-163 -302 -20 -38 -57 -108 -81 -155 -61 -114 -256 -504 -333 -665 -34 -71
-78 -161 -96 -200 -50 -104 -115 -246 -115 -250 0 -2 -15 -37 -34 -77 -18 -40
-46 -100 -60 -133 -15 -33 -33 -73 -41 -90 -7 -16 -25 -59 -40 -95 -25 -61
-48 -114 -65 -151 -5 -8 -20 -47 -35 -85 -15 -38 -35 -87 -45 -109 -10 -22
-27 -62 -38 -90 -11 -27 -29 -72 -40 -100 -11 -27 -46 -115 -77 -195 -31 -80
-65 -165 -75 -190 -17 -42 -31 -77 -82 -217 -11 -32 -27 -72 -34 -90 -8 -17
-14 -37 -14 -45 -1 -7 -9 -31 -20 -53 -11 -22 -20 -47 -20 -55 0 -8 -7 -28
-15 -44 -9 -16 -20 -46 -25 -65 -5 -20 -21 -67 -35 -106 -15 -38 -33 -90 -40
-115 -7 -25 -19 -61 -25 -80 -40 -114 -48 -140 -64 -185 -10 -27 -22 -63 -26
-80 -4 -16 -12 -41 -18 -55 -6 -14 -29 -86 -51 -160 -23 -74 -46 -148 -52
-165 -6 -16 -17 -52 -25 -80 -7 -27 -25 -88 -39 -135 -15 -47 -32 -110 -40
-140 -7 -30 -18 -68 -23 -85 -29 -88 -46 -144 -53 -175 -4 -19 -16 -69 -27
-110 -45 -164 -75 -278 -87 -330 -19 -78 -51 -207 -65 -260 -27 -106 -82 -342
-106 -455 -9 -44 -23 -107 -32 -140 -8 -33 -18 -83 -22 -112 -5 -29 -15 -84
-24 -123 -30 -133 -45 -205 -51 -245 -3 -22 -12 -69 -20 -105 -14 -63 -32
-164 -75 -420 -11 -69 -25 -150 -31 -180 -6 -30 -15 -86 -20 -125 -5 -38 -16
-108 -24 -155 -8 -47 -19 -129 -25 -182 -6 -54 -16 -112 -21 -130 -5 -18 -9
-49 -9 -68 0 -19 -9 -98 -20 -175 -24 -173 -70 -581 -90 -805 -19 -214 -31
-356 -32 -375 -1 -11 -7 -114 -14 -230 -36 -570 -54 -1046 -54 -1421 0 -350
12 -407 128 -619 7 -13 44 -57 82 -98 128 -137 302 -228 460 -241 40 -3 76 -9
81 -12 18 -11 217 18 288 42 85 29 92 33 185 94 120 77 234 212 280 330 10 25
25 61 33 80 23 52 35 210 40 545 6 392 21 834 33 1010 6 77 15 208 20 290 6
83 15 197 20 255 6 58 11 112 11 120 6 99 42 443 69 655 11 83 21 173 24 200
3 46 19 156 47 340 6 39 15 102 20 140 5 39 15 108 23 155 8 47 24 144 36 215
12 72 30 175 40 230 11 55 29 150 40 210 11 61 27 142 35 180 8 39 17 88 21
110 3 22 10 54 15 70 5 17 16 66 24 110 30 154 42 211 58 270 21 83 36 149 51
225 7 36 18 81 24 100 24 80 52 191 52 209 0 10 7 38 16 62 8 24 19 62 24 84
4 22 18 76 30 120 12 44 31 112 41 150 10 39 27 102 39 140 24 81 54 190 71
255 6 25 17 61 24 80 7 19 23 69 35 110 12 41 30 99 41 128 10 30 19 61 19 70
1 10 9 35 20 57 11 22 19 49 20 60 0 20 33 125 56 180 12 29 31 84 58 175 17
55 43 128 56 155 5 11 14 36 19 55 5 19 22 67 36 105 14 39 32 88 40 110 28
81 46 131 60 162 8 17 15 35 15 39 0 5 9 31 19 59 11 27 36 93 56 145 43 111
70 178 96 238 10 23 19 48 19 54 0 6 10 32 21 57 24 50 35 77 69 161 12 30 31
73 41 96 11 23 19 45 19 50 0 5 10 29 21 54 12 25 28 59 35 75 46 107 67 153
79 178 8 16 15 32 15 37 0 8 40 98 114 255 19 39 45 95 59 125 152 330 368
761 547 1095 29 55 62 116 72 135 10 19 30 55 44 80 14 25 40 71 57 103 18 32
42 74 54 95 12 20 29 51 38 67 8 17 26 48 39 70 14 22 32 54 41 70 8 17 21 39
28 50 7 11 23 38 35 60 12 22 30 52 40 67 9 14 43 71 75 125 32 54 78 130 102
168 46 73 50 80 102 169 18 31 58 92 88 137 30 45 55 83 55 86 0 2 15 25 33
51 36 52 44 66 69 110 10 16 49 75 87 131 39 56 82 120 96 144 15 23 43 65 63
94 20 28 61 85 90 127 28 42 75 109 102 149 28 39 75 106 105 147 31 41 68 93
83 115 15 23 44 63 65 90 21 28 101 133 178 235 77 102 168 221 202 266 59 77
348 437 474 589 104 127 486 568 523 605 3 3 45 50 95 105 452 503 1107 1152
1650 1635 375 334 831 714 1159 967 152 118 390 298 431 328 23 17 88 64 145
105 178 130 203 148 270 194 36 25 108 75 160 111 102 71 431 294 458 310 9 6
55 35 102 65 47 30 95 61 105 67 323 205 300 190 380 238 37 22 82 49 101 60
18 11 61 37 96 58 35 21 81 49 103 63 22 13 49 29 60 34 11 6 38 21 60 35 22
14 49 30 60 35 11 5 38 21 60 34 22 14 67 39 100 57 33 17 65 35 72 41 7 5 41
25 75 43 93 50 167 90 218 119 25 14 77 41 115 61 39 20 124 65 190 100 142
75 518 263 660 330 55 26 132 62 170 80 39 18 97 45 130 60 33 15 94 43 135
62 73 34 119 54 190 86 19 8 55 24 80 35 25 11 70 30 100 42 30 12 75 31 100
43 85 38 105 46 194 82 48 19 114 46 145 59 31 14 121 50 201 81 80 31 190 74
246 96 55 21 106 39 113 39 7 0 25 6 39 14 15 7 53 23 85 34 31 12 81 30 110
42 29 11 58 20 65 20 7 0 30 9 52 20 22 11 47 20 57 20 10 1 36 9 58 20 22 11
48 19 58 20 11 0 31 6 45 14 26 14 78 32 172 61 25 7 61 19 80 26 19 6 59 20
88 30 30 11 61 19 70 19 10 1 35 9 57 20 22 11 47 19 55 20 8 0 65 16 125 35
107 34 167 52 310 94 39 11 99 29 135 40 36 11 76 22 90 25 14 2 66 16 115 31
50 14 117 32 150 40 33 8 92 24 130 35 39 11 93 25 120 31 28 6 70 16 95 24
25 7 88 22 140 34 52 12 133 31 180 42 194 45 250 58 345 78 55 12 120 27 145
33 25 6 68 14 95 18 28 5 79 15 115 23 36 8 121 25 190 37 69 12 152 28 185
35 33 8 83 16 110 20 28 3 84 13 125 20 41 8 134 24 205 35 72 11 159 25 195
30 36 6 101 15 145 21 44 5 125 17 180 25 55 9 123 18 150 20 28 3 97 11 155
19 58 8 134 17 170 20 36 3 117 13 180 21 63 8 174 19 245 24 72 5 175 14 230
19 55 6 174 16 265 22 91 6 185 13 210 15 415 38 2273 38 2730 0 25 -2 119 -9
210 -15 91 -7 212 -16 270 -22 58 -5 164 -14 235 -19 72 -5 180 -16 240 -24
61 -8 142 -17 180 -21 67 -6 138 -15 400 -51 66 -9 152 -20 190 -24 87 -10
261 -36 340 -51 33 -6 101 -17 150 -25 50 -8 142 -23 205 -34 63 -11 154 -26
201 -34 47 -8 103 -19 125 -25 21 -5 66 -15 99 -20 33 -6 94 -17 135 -25 196
-40 241 -50 315 -66 44 -10 125 -28 180 -40 55 -12 125 -28 155 -36 30 -8 75
-18 100 -23 55 -11 158 -36 225 -56 28 -8 70 -19 95 -24 69 -15 238 -59 335
-87 28 -8 68 -18 90 -24 47 -11 151 -40 250 -70 92 -28 189 -56 245 -70 25 -7
61 -18 80 -25 19 -7 69 -23 110 -35 94 -28 438 -140 465 -151 11 -5 67 -24
125 -43 92 -30 151 -51 390 -137 30 -11 69 -24 87 -30 18 -5 45 -16 60 -24 15
-8 35 -15 43 -15 8 0 33 -9 55 -20 22 -11 47 -19 56 -20 8 0 24 -7 35 -15 10
-8 25 -15 33 -15 8 0 33 -8 55 -19 23 -10 75 -31 116 -46 41 -15 89 -33 105
-41 17 -7 62 -25 100 -40 39 -14 75 -29 80 -33 6 -4 37 -17 70 -30 33 -12 103
-41 155 -63 52 -23 115 -50 140 -60 25 -11 59 -25 75 -33 17 -7 48 -21 70 -30
22 -10 63 -28 90 -40 28 -12 73 -32 100 -45 28 -12 68 -30 90 -41 22 -10 76
-35 120 -55 131 -60 222 -104 590 -288 368 -184 482 -243 705 -365 41 -23 89
-49 105 -57 17 -8 48 -26 70 -40 22 -13 55 -31 74 -40 18 -8 52 -27 75 -42 22
-14 66 -39 96 -55 30 -16 62 -35 70 -41 8 -6 35 -22 60 -35 25 -13 51 -28 58
-34 7 -5 25 -17 41 -26 26 -14 84 -48 192 -113 16 -10 42 -26 58 -35 36 -22
243 -150 326 -202 92 -58 352 -229 451 -296 49 -33 94 -62 99 -64 6 -2 33 -21
60 -41 28 -20 102 -72 165 -115 119 -81 151 -104 258 -181 35 -25 87 -62 116
-82 131 -93 592 -442 705 -535 35 -28 83 -65 107 -82 23 -16 57 -44 76 -60 18
-17 60 -52 93 -78 152 -120 528 -438 704 -596 41 -36 90 -79 109 -96 67 -57
177 -159 287 -264 61 -58 164 -155 230 -216 148 -137 585 -574 725 -726 58
-62 155 -165 216 -228 107 -112 146 -154 264 -290 30 -35 62 -71 71 -80 23
-24 231 -261 264 -302 17 -20 86 -103 155 -185 69 -82 151 -180 182 -219 30
-38 68 -83 83 -100 15 -16 35 -43 45 -58 9 -15 39 -53 66 -83 26 -31 75 -90
107 -132 32 -43 91 -119 130 -171 40 -51 92 -121 117 -155 25 -34 61 -83 80
-109 19 -25 53 -71 75 -102 22 -31 56 -77 76 -103 19 -26 53 -72 74 -102 133
-189 164 -234 217 -310 112 -160 253 -370 268 -398 9 -15 48 -76 88 -136 40
-59 72 -109 72 -111 0 -2 24 -39 53 -84 28 -44 65 -102 81 -128 16 -27 48 -77
71 -113 23 -36 50 -78 59 -95 9 -16 25 -45 36 -62 36 -60 55 -91 95 -158 22
-37 50 -84 62 -104 12 -20 27 -47 33 -60 5 -12 25 -46 43 -75 53 -83 57 -90
66 -111 5 -11 41 -76 80 -143 39 -68 71 -126 71 -129 0 -2 18 -36 41 -75 22
-38 61 -109 85 -156 25 -48 49 -94 54 -102 6 -8 14 -26 20 -40 5 -14 14 -32
18 -40 5 -8 14 -24 20 -35 35 -62 158 -305 242 -480 34 -71 66 -137 71 -145 5
-8 12 -22 15 -30 3 -8 10 -23 15 -32 14 -28 24 -48 62 -128 91 -196 117 -251
117 -255 0 -2 16 -39 35 -82 66 -145 72 -158 95 -213 12 -30 30 -73 40 -95 9
-22 24 -56 33 -75 8 -19 24 -55 35 -80 11 -25 23 -56 27 -70 4 -14 14 -34 21
-45 8 -11 14 -26 14 -34 0 -7 8 -32 19 -55 10 -23 28 -63 39 -91 11 -27 30
-75 42 -105 12 -30 28 -68 36 -83 8 -16 14 -34 14 -40 0 -6 8 -29 18 -51 10
-23 24 -57 31 -76 7 -19 22 -57 33 -85 11 -27 26 -68 32 -90 7 -22 20 -57 29
-77 10 -21 17 -43 17 -51 0 -7 7 -22 15 -33 8 -10 15 -28 15 -38 0 -11 8 -38
18 -60 20 -44 48 -122 62 -171 11 -37 44 -133 87 -255 11 -30 30 -89 43 -130
13 -41 31 -97 40 -125 32 -91 41 -120 55 -165 7 -25 23 -75 34 -112 49 -160
63 -206 76 -253 8 -27 26 -90 40 -140 48 -165 66 -230 76 -280 6 -27 17 -62
25 -77 8 -15 14 -37 14 -49 0 -13 8 -50 19 -83 23 -75 39 -133 56 -211 16 -77
33 -144 57 -224 10 -35 18 -72 18 -83 0 -11 8 -50 19 -86 10 -37 24 -94 31
-127 6 -33 21 -98 31 -145 11 -47 26 -116 33 -155 7 -38 18 -90 24 -115 20
-83 44 -204 52 -260 4 -30 12 -75 19 -100 12 -49 35 -175 56 -312 7 -47 16
-95 19 -105 6 -18 30 -170 48 -298 5 -38 15 -106 23 -150 8 -44 17 -105 20
-135 3 -30 14 -118 25 -195 28 -209 49 -373 55 -440 3 -33 12 -116 20 -185 8
-69 19 -183 24 -255 6 -71 15 -177 21 -235 5 -58 14 -177 19 -265 5 -88 12
-200 14 -250 44 -733 44 -1796 1 -2530 -3 -49 -10 -160 -15 -245 -5 -85 -14
-204 -19 -265 -22 -242 -31 -334 -41 -430 -5 -55 -14 -144 -19 -197 -8 -96
-27 -249 -56 -458 -8 -58 -19 -145 -24 -195 -5 -49 -14 -108 -20 -130 -6 -22
-15 -76 -19 -120 -12 -103 -54 -362 -88 -540 -9 -44 -21 -116 -28 -160 -7 -44
-17 -100 -23 -125 -10 -43 -22 -103 -43 -215 -5 -27 -19 -93 -30 -145 -11 -52
-27 -129 -36 -170 -9 -41 -22 -102 -31 -135 -8 -33 -18 -80 -22 -105 -4 -25
-15 -76 -25 -115 -10 -38 -26 -106 -37 -150 -11 -44 -25 -98 -30 -120 -6 -22
-16 -67 -23 -100 -7 -33 -17 -73 -23 -90 -6 -16 -20 -68 -32 -115 -11 -47 -27
-106 -35 -132 -9 -26 -19 -66 -24 -90 -16 -75 -119 -428 -172 -591 -11 -31
-19 -64 -19 -72 0 -8 -6 -29 -14 -47 -8 -18 -24 -67 -36 -108 -12 -41 -29 -97
-39 -125 -10 -27 -31 -90 -46 -140 -16 -49 -32 -94 -35 -100 -4 -5 -12 -28
-18 -50 -11 -41 -47 -149 -59 -175 -3 -8 -12 -33 -19 -55 -6 -22 -17 -56 -24
-75 -7 -19 -22 -60 -33 -90 -11 -30 -23 -62 -27 -71 -7 -14 -38 -98 -96 -264
-8 -22 -19 -49 -24 -60 -5 -11 -21 -51 -35 -90 -14 -38 -32 -83 -39 -100 -7
-16 -23 -57 -35 -90 -12 -33 -31 -77 -41 -97 -11 -20 -20 -42 -20 -48 0 -7 -6
-26 -14 -43 -8 -18 -27 -61 -41 -97 -26 -66 -36 -89 -74 -171 -12 -25 -21 -52
-21 -58 0 -7 -9 -29 -20 -49 -10 -20 -28 -58 -40 -85 -11 -26 -29 -68 -41 -95
-11 -26 -27 -60 -34 -77 -7 -16 -23 -51 -35 -77 -11 -26 -29 -67 -40 -90 -51
-115 -169 -367 -181 -388 -5 -8 -14 -26 -19 -40 -6 -14 -14 -32 -19 -40 -6 -8
-22 -40 -36 -70 -14 -30 -30 -63 -36 -72 -5 -10 -14 -28 -21 -40 -6 -13 -15
-30 -20 -38 -4 -8 -13 -26 -19 -40 -6 -14 -15 -32 -20 -40 -5 -8 -14 -26 -19
-40 -6 -14 -14 -32 -19 -40 -6 -8 -22 -40 -36 -70 -14 -30 -31 -64 -37 -75 -7
-11 -38 -69 -70 -130 -86 -165 -91 -174 -138 -260 -38 -71 -146 -265 -170
-305 -5 -8 -24 -43 -42 -78 -18 -35 -39 -68 -45 -74 -7 -6 -13 -16 -13 -22 0
-6 -16 -36 -36 -66 -20 -30 -41 -64 -46 -75 -5 -11 -19 -36 -31 -56 -12 -20
-40 -67 -62 -104 -22 -37 -48 -79 -57 -93 -10 -15 -22 -36 -27 -47 -5 -11 -27
-48 -50 -82 -22 -34 -41 -64 -41 -67 0 -5 -30 -52 -101 -159 -22 -32 -39 -60
-39 -64 0 -8 -121 -192 -351 -534 -35 -52 -68 -103 -74 -112 -61 -98 -399
-568 -577 -800 -46 -60 -98 -129 -115 -154 -117 -161 -700 -879 -729 -896 -7
-4 -43 2 -81 14 -142 44 -274 82 -378 110 -93 24 -193 53 -285 80 -36 11 -71
19 -77 19 -7 0 -41 9 -75 19 -35 11 -90 26 -123 35 -33 8 -94 24 -135 35 -41
10 -113 29 -160 40 -47 12 -107 28 -135 37 -27 8 -74 19 -103 24 -29 5 -60 14
-70 18 -9 5 -35 12 -57 16 -22 4 -60 13 -85 20 -25 7 -90 23 -145 35 -55 13
-131 31 -170 41 -63 16 -228 56 -460 110 -138 32 -379 86 -535 120 -52 11
-115 26 -140 32 -25 6 -76 16 -115 24 -38 7 -92 18 -120 24 -110 25 -404 86
-655 136 -178 35 -217 43 -300 58 -47 9 -116 22 -155 30 -140 30 -175 36 -430
80 -49 9 -110 21 -135 27 -25 6 -72 14 -105 18 -33 4 -100 15 -150 25 -160 30
-198 37 -294 51 -52 8 -115 19 -140 24 -65 15 -222 41 -311 52 -41 5 -105 16
-142 24 -37 8 -81 15 -98 15 -17 0 -77 9 -133 19 -97 18 -175 30 -332 52 -38
5 -108 16 -155 24 -47 8 -107 17 -135 20 -27 3 -93 12 -145 20 -84 12 -186 27
-460 65 -41 6 -118 15 -170 21 -52 5 -131 16 -175 24 -44 8 -109 16 -145 20
-36 3 -112 12 -170 20 -104 15 -157 21 -425 50 -77 8 -166 20 -197 25 -32 6
-116 15 -188 20 -72 5 -147 14 -168 19 -20 6 -107 15 -192 21 -85 7 -158 14
-161 16 -4 2 -40 6 -80 9 -41 3 -159 14 -264 25 -104 11 -260 27 -345 36 -85
8 -218 20 -295 25 -77 5 -153 11 -170 14 -16 3 -93 10 -170 15 -77 6 -192 15
-255 21 -63 6 -180 14 -260 19 -80 5 -233 16 -340 24 -179 14 -382 27 -1085
71 -137 9 -407 20 -600 25 -192 6 -370 15 -395 20 -25 5 -135 11 -245 12 -212
3 -279 -6 -400 -55 -148 -59 -276 -161 -361 -287 -39 -57 -84 -146 -84 -163 0
-8 -7 -28 -15 -44 -27 -55 -41 -229 -26 -344 35 -286 195 -493 481 -623 80
-36 201 -54 415 -60 116 -4 336 -13 490 -21 154 -8 345 -17 425 -20 80 -3 204
-10 275 -16 72 -5 225 -14 340 -19 116 -5 237 -11 270 -14 33 -3 130 -10 215
-15 133 -9 299 -22 480 -36 25 -2 88 -6 140 -9 90 -6 176 -13 600 -51 96 -9
238 -20 315 -26 147 -10 174 -13 215 -23 14 -3 96 -10 184 -16 87 -5 175 -14
195 -19 20 -5 86 -12 146 -16 61 -4 139 -11 175 -16 36 -5 88 -12 115 -14 148
-14 310 -32 545 -62 69 -8 168 -19 220 -24 52 -5 106 -11 120 -13 26 -5 129
-18 285 -37 94 -11 217 -27 420 -53 66 -9 161 -22 210 -30 50 -9 115 -18 145
-21 55 -5 153 -20 350 -51 58 -9 141 -21 185 -25 44 -5 93 -13 110 -18 16 -5
59 -12 95 -15 36 -4 99 -13 140 -21 41 -7 104 -16 140 -20 36 -3 79 -10 95
-15 17 -5 80 -17 140 -26 61 -8 152 -22 203 -29 52 -7 101 -16 110 -20 9 -3
62 -13 118 -20 56 -8 114 -19 129 -25 14 -5 41 -10 60 -10 19 0 67 -7 107 -16
40 -9 100 -20 133 -24 33 -4 94 -15 135 -23 92 -19 170 -33 280 -51 47 -8 92
-17 101 -21 8 -3 53 -12 100 -19 105 -18 322 -59 504 -96 50 -11 137 -28 195
-40 58 -12 134 -28 170 -35 36 -8 91 -19 123 -25 32 -5 63 -12 69 -16 5 -4 35
-10 66 -14 32 -4 86 -15 122 -23 36 -9 110 -26 165 -37 55 -12 123 -28 150
-35 28 -7 70 -16 95 -20 25 -4 68 -13 95 -20 72 -19 223 -53 270 -61 22 -4 47
-10 56 -15 9 -5 41 -12 70 -18 54 -9 145 -30 249 -56 30 -8 96 -24 145 -35 50
-12 124 -30 165 -40 41 -11 113 -29 160 -40 116 -29 184 -47 255 -65 33 -9 85
-22 115 -30 111 -28 146 -37 210 -56 36 -11 73 -19 82 -19 10 0 35 -7 57 -16
21 -8 61 -18 88 -22 41 -6 49 -11 51 -31 3 -18 -9 -35 -54 -75 -32 -28 -117
-108 -189 -177 -395 -382 -428 -413 -567 -534 -25 -22 -83 -74 -129 -116 -113
-102 -429 -373 -498 -428 -31 -24 -72 -58 -92 -75 -60 -52 -82 -70 -261 -213
-263 -211 -294 -235 -545 -423 -241 -181 -420 -312 -532 -390 -37 -25 -91 -63
-121 -85 -129 -91 -489 -335 -495 -335 -2 0 -43 -26 -92 -59 -48 -32 -122 -80
-163 -106 -41 -26 -91 -57 -110 -70 -19 -12 -66 -41 -105 -65 -38 -24 -81 -50
-95 -59 -14 -9 -32 -20 -41 -26 -27 -16 -149 -89 -169 -100 -10 -6 -24 -16
-31 -21 -8 -6 -39 -25 -69 -41 -30 -17 -149 -86 -265 -153 -115 -67 -219 -126
-230 -132 -11 -5 -38 -20 -60 -33 -22 -13 -60 -35 -85 -48 -43 -22 -131 -69
-300 -160 -295 -159 -878 -444 -1160 -569 -25 -11 -70 -31 -100 -45 -30 -14
-68 -31 -85 -38 -16 -7 -65 -29 -107 -49 -42 -20 -82 -36 -88 -36 -6 0 -28 -9
-48 -19 -50 -26 -113 -53 -197 -86 -38 -15 -74 -31 -80 -36 -5 -5 -15 -9 -23
-9 -14 0 -54 -17 -147 -61 -22 -10 -46 -19 -52 -19 -7 0 -32 -9 -55 -19 -63
-29 -222 -91 -232 -91 -5 0 -27 -8 -50 -19 -23 -10 -57 -24 -76 -31 -19 -6
-57 -21 -85 -32 -27 -11 -72 -27 -100 -35 -27 -9 -54 -19 -60 -23 -5 -4 -26
-13 -45 -18 -19 -6 -66 -22 -105 -37 -38 -14 -83 -30 -100 -35 -16 -5 -138
-46 -270 -91 -309 -105 -543 -179 -670 -213 -27 -8 -63 -19 -80 -24 -29 -10
-78 -25 -245 -72 -41 -12 -97 -28 -125 -35 -27 -8 -86 -24 -130 -36 -44 -12
-109 -29 -145 -39 -129 -35 -156 -42 -235 -61 -44 -11 -100 -24 -125 -29 -24
-6 -69 -17 -100 -24 -78 -20 -216 -54 -275 -66 -27 -6 -90 -20 -140 -31 -49
-11 -124 -26 -165 -34 -42 -8 -88 -19 -103 -24 -16 -6 -40 -11 -54 -11 -14 0
-65 -9 -112 -19 -97 -22 -161 -35 -306 -61 -55 -10 -127 -23 -160 -29 -71 -12
-276 -47 -395 -66 -80 -13 -147 -23 -315 -46 -81 -11 -189 -27 -225 -33 -14
-2 -56 -7 -95 -10 -38 -4 -113 -13 -165 -21 -52 -7 -126 -16 -165 -20 -38 -3
-122 -12 -185 -20 -63 -8 -173 -19 -245 -25 -71 -5 -184 -14 -250 -20 -66 -5
-187 -15 -270 -21 -82 -6 -177 -13 -210 -15 -33 -3 -206 -9 -385 -15 l-325
-10 -17 21 c-10 12 -23 41 -28 63 -6 23 -16 56 -22 72 -5 17 -16 53 -23 80 -7
28 -18 64 -24 80 -16 47 -46 143 -71 225 -12 41 -26 89 -32 105 -5 17 -24 82
-43 145 -18 63 -37 126 -42 140 -6 14 -19 57 -31 95 -11 39 -30 102 -42 140
-11 39 -30 102 -42 140 -11 39 -26 86 -33 105 -7 19 -17 53 -23 75 -5 22 -14
54 -20 70 -6 17 -20 64 -33 105 -12 41 -28 93 -35 115 -7 22 -25 81 -39 130
-15 50 -33 108 -40 130 -7 22 -23 74 -35 115 -12 41 -26 89 -32 105 -6 17 -15
48 -20 70 -6 22 -16 54 -23 70 -7 17 -15 46 -19 65 -4 19 -13 51 -20 70 -7 19
-23 69 -36 110 -12 41 -31 100 -41 131 -11 31 -19 63 -19 72 0 9 -6 31 -14 49
-8 18 -27 76 -41 128 -15 52 -33 111 -40 130 -11 31 -36 113 -63 210 -6 19
-15 49 -20 65 -6 17 -21 64 -33 105 -12 41 -26 86 -32 100 -5 14 -15 48 -22
75 -7 28 -18 64 -23 80 -6 17 -20 64 -33 105 -12 41 -30 100 -40 130 -9 30
-27 89 -39 130 -21 70 -46 152 -75 245 -7 22 -22 74 -35 115 -12 41 -26 89
-32 105 -5 17 -16 53 -23 80 -7 28 -17 61 -22 75 -6 14 -21 59 -33 100 -12 41
-31 100 -41 131 -11 31 -19 62 -19 70 0 7 -9 36 -19 64 -11 27 -29 86 -41 130
-12 44 -28 96 -35 115 -11 32 -36 114 -63 210 -6 19 -15 49 -20 65 -6 17 -21
64 -33 105 -12 41 -26 86 -32 100 -5 14 -15 48 -22 75 -7 28 -18 64 -23 80 -6
17 -20 64 -33 105 -12 41 -30 100 -39 130 -10 30 -28 89 -40 130 -75 249 -92
302 -111 358 -11 30 -19 62 -19 73 0 10 -6 33 -14 51 -8 18 -27 74 -41 123
-15 50 -33 108 -40 130 -7 22 -22 74 -35 115 -12 41 -30 100 -40 130 -10 30
-28 91 -40 135 -12 44 -27 91 -32 105 -6 14 -16 48 -23 75 -13 49 -16 61 -50
160 -9 28 -20 66 -25 85 -8 34 -30 105 -51 165 -6 17 -17 53 -24 80 -7 28 -18
64 -24 80 -5 17 -20 64 -32 105 -12 41 -29 100 -39 130 -9 30 -27 89 -40 130
-12 41 -28 93 -35 115 -7 22 -23 74 -35 115 -12 41 -31 99 -41 128 -11 30 -19
61 -19 70 0 9 -9 39 -19 67 -10 27 -29 84 -41 125 -12 41 -28 93 -35 115 -7
22 -22 72 -33 110 -11 39 -28 93 -37 120 -8 28 -23 75 -32 105 -38 132 -64
218 -84 275 -6 17 -17 53 -24 80 -18 63 -39 136 -61 200 -31 96 -36 110 -49
160 -7 28 -18 64 -24 80 -6 17 -22 71 -37 120 -14 50 -32 108 -39 130 -7 22
-23 74 -35 115 -13 41 -28 93 -35 115 -7 22 -23 74 -35 115 -12 41 -30 98 -40
125 -9 28 -22 68 -28 90 -10 39 -39 136 -67 225 -32 103 -58 189 -75 250 -9
36 -22 76 -27 90 -6 14 -20 59 -32 100 -12 41 -27 89 -33 105 -5 17 -16 54
-23 83 -8 29 -18 58 -23 65 -5 7 -12 32 -16 56 -4 24 -13 56 -21 72 -8 15 -15
36 -15 46 0 10 -9 40 -19 68 -11 27 -29 86 -41 130 -12 44 -27 91 -32 105 -6
14 -16 48 -24 75 -13 50 -44 153 -63 210 -34 103 -51 162 -51 173 0 8 -7 28
-15 45 -8 18 -19 50 -24 72 -11 43 -43 151 -59 200 -6 17 -20 64 -32 105 -13
41 -28 93 -35 115 -7 22 -25 81 -40 130 -15 50 -33 108 -40 130 -7 22 -17 56
-21 75 -3 19 -12 48 -19 65 -7 16 -22 64 -35 105 -12 41 -26 89 -32 105 -5 17
-16 53 -23 81 -7 28 -17 59 -22 70 -6 10 -13 36 -17 58 -4 21 -13 52 -21 70
-7 17 -32 96 -55 176 -23 80 -48 161 -56 180 -8 19 -18 53 -23 75 -14 55 -48
167 -86 280 -9 28 -21 70 -26 94 -5 24 -13 49 -18 55 -5 6 -13 31 -19 56 -11
45 -41 149 -60 205 -6 17 -20 64 -32 105 -13 41 -31 100 -40 130 -10 30 -28
89 -40 130 -12 41 -28 93 -35 115 -7 22 -22 74 -34 115 -12 41 -27 89 -33 105
-5 17 -15 48 -20 70 -6 22 -19 61 -29 87 -11 26 -19 57 -19 70 0 13 -6 32 -14
43 -7 11 -16 39 -20 62 -3 24 -12 57 -20 75 -8 18 -33 98 -56 178 -23 80 -50
170 -60 200 -10 30 -28 89 -40 130 -12 41 -28 90 -36 108 -8 18 -14 42 -14 53
0 11 -8 41 -19 67 -10 26 -24 67 -30 92 -7 25 -19 65 -26 90 -8 25 -23 74 -34
110 -11 36 -24 79 -29 95 -6 17 -20 64 -32 105 -13 41 -31 100 -40 130 -10 30
-27 89 -40 130 -12 41 -27 93 -35 115 -7 22 -23 74 -35 115 -27 90 -58 194
-72 235 -6 17 -16 54 -23 83 -8 29 -18 58 -23 65 -5 7 -13 30 -16 52 -4 22
-22 85 -40 140 -18 55 -45 143 -60 195 -16 52 -34 113 -41 135 -7 22 -23 74
-35 115 -12 41 -28 91 -35 110 -7 19 -17 53 -23 75 -5 22 -14 54 -20 70 -6 17
-20 64 -32 105 -13 41 -27 86 -33 100 -5 14 -15 48 -23 75 -7 28 -22 82 -34
120 -12 39 -31 98 -41 133 -10 34 -28 92 -40 130 -11 37 -27 92 -36 122 -8 30
-19 60 -23 65 -4 6 -10 28 -14 50 -4 22 -13 56 -20 75 -7 19 -23 69 -36 110
-12 41 -31 99 -41 128 -11 30 -19 64 -19 76 0 12 -6 30 -13 41 -8 11 -17 36
-21 55 -6 32 -53 188 -96 320 -10 30 -21 71 -25 90 -4 19 -11 40 -16 46 -5 6
-13 31 -18 55 -12 53 -43 156 -86 284 -9 28 -21 70 -26 94 -5 24 -13 49 -18
55 -5 6 -13 31 -19 56 -6 25 -15 59 -21 75 -6 17 -22 71 -36 120 -15 50 -33
105 -41 123 -8 18 -14 39 -14 47 0 8 -9 43 -20 77 -11 35 -30 95 -42 133 -11
39 -27 86 -34 105 -7 19 -16 53 -20 75 -3 22 -12 50 -20 62 -8 12 -14 31 -14
42 0 10 -8 43 -19 73 -17 50 -34 102 -80 258 -41 137 -94 307 -111 360 -10 30
-21 70 -25 88 -4 18 -13 45 -21 60 -8 15 -14 35 -14 45 0 17 -29 113 -56 187
-7 19 -16 51 -20 70 -3 19 -13 47 -20 62 -8 15 -14 37 -14 50 0 13 -6 35 -14
50 -8 15 -17 42 -21 60 -4 18 -15 58 -25 88 -10 30 -28 89 -40 130 -12 41 -26
86 -32 100 -6 14 -16 48 -24 75 -7 28 -22 82 -34 120 -12 39 -26 88 -32 110
-5 22 -16 54 -24 70 -7 17 -16 44 -19 60 -6 29 -16 62 -55 185 -9 30 -27 89
-40 130 -13 41 -31 100 -40 130 -10 30 -28 91 -40 135 -12 44 -28 96 -35 115
-17 50 -54 170 -61 204 -4 16 -13 41 -20 55 -8 14 -14 34 -14 44 0 17 -29 113
-56 187 -7 19 -16 51 -20 70 -3 19 -13 47 -20 62 -8 15 -14 37 -14 50 0 13 -6
35 -14 49 -7 14 -16 39 -20 55 -4 16 -22 79 -40 139 -19 61 -46 151 -61 200
-45 150 -57 188 -76 243 -11 30 -19 64 -19 76 0 12 -6 30 -14 41 -7 11 -17 36
-20 55 -4 19 -14 58 -23 85 -9 28 -23 75 -33 105 -9 30 -27 89 -40 130 -12 41
-30 100 -40 130 -10 30 -27 89 -39 130 -12 41 -26 89 -32 105 -6 17 -17 54
-25 83 -8 30 -19 62 -24 72 -6 10 -10 29 -10 42 -1 13 -9 41 -20 63 -11 22
-19 50 -20 63 0 13 -7 36 -15 53 -9 16 -20 48 -24 72 -5 23 -14 56 -20 72 -18
51 -41 128 -55 180 -8 28 -37 124 -65 215 -28 91 -61 197 -72 235 -12 39 -28
93 -37 120 -8 28 -21 67 -28 87 -14 43 -5 55 28 37 23 -13 310 -238 368 -289
19 -17 62 -55 95 -83 228 -198 436 -410 681 -692 114 -131 381 -461 424 -525
8 -12 40 -55 70 -96 94 -126 123 -166 185 -259 33 -49 70 -103 82 -120 11 -16
54 -82 93 -145 40 -63 89 -140 109 -170 20 -30 42 -66 48 -80 7 -14 21 -37 30
-52 10 -14 35 -55 56 -90 20 -34 42 -70 47 -78 16 -26 131 -231 157 -279 13
-25 42 -77 63 -116 112 -202 330 -638 430 -860 18 -38 42 -92 55 -120 59 -125
105 -227 105 -232 0 -4 9 -26 20 -50 11 -24 29 -64 41 -90 11 -27 26 -61 33
-78 7 -16 23 -55 36 -85 12 -30 31 -73 41 -96 11 -23 19 -47 19 -55 0 -8 7
-23 15 -33 8 -11 15 -26 15 -34 0 -8 8 -33 19 -56 50 -111 61 -137 61 -149 1
-6 9 -30 20 -52 11 -22 19 -44 20 -50 0 -5 14 -44 31 -85 17 -41 37 -96 45
-122 8 -26 19 -50 24 -53 6 -3 10 -16 10 -28 0 -12 7 -35 16 -52 9 -16 20 -43
25 -60 15 -55 90 -270 98 -280 5 -5 12 -28 16 -50 4 -22 10 -44 14 -50 4 -5
29 -77 55 -160 27 -82 54 -166 61 -185 7 -19 32 -96 55 -170 23 -74 50 -160
60 -190 10 -30 21 -72 25 -93 4 -20 11 -40 16 -43 5 -3 9 -14 9 -25 0 -10 8
-45 18 -76 32 -100 63 -208 124 -428 11 -38 25 -90 33 -115 7 -25 17 -63 21
-85 3 -22 10 -47 15 -56 5 -9 15 -45 23 -80 8 -35 24 -102 36 -149 12 -47 27
-110 34 -140 7 -30 18 -73 24 -95 11 -40 30 -118 72 -310 13 -55 29 -120 36
-145 7 -25 16 -63 19 -85 3 -22 15 -80 26 -130 43 -196 50 -232 59 -297 6 -37
15 -79 20 -93 6 -15 10 -40 10 -56 0 -63 64 -334 109 -459 105 -296 309 -602
532 -799 88 -78 251 -201 266 -201 3 0 14 -6 22 -14 21 -18 161 -91 236 -123
33 -14 74 -31 90 -38 33 -14 136 -45 235 -70 102 -26 314 -50 435 -49 120 1
344 26 387 42 14 6 53 16 87 22 33 6 73 17 88 25 15 8 37 15 49 15 11 0 29 7
40 15 10 8 24 15 31 15 7 0 56 21 110 46 148 69 213 99 263 122 52 23 152 67
195 87 17 7 55 24 85 38 30 13 73 32 95 42 22 9 54 23 70 30 17 7 59 25 95 40
36 15 79 33 97 41 17 8 36 14 42 14 10 0 37 11 147 61 23 11 45 19 49 19 4 0
21 6 38 14 62 26 142 56 152 56 6 1 28 9 50 20 22 11 49 19 60 20 11 0 29 6
40 13 11 7 108 41 215 76 107 34 209 67 225 73 77 26 283 85 345 99 25 5 63
15 85 23 84 29 331 83 565 126 63 11 123 23 133 26 10 3 64 12 120 20 56 8
113 17 127 19 14 3 50 7 80 10 30 3 118 12 195 20 502 53 1195 42 1730 -26 44
-5 118 -14 165 -20 47 -6 126 -17 175 -24 50 -8 164 -26 255 -40 91 -13 197
-31 235 -39 131 -27 250 -49 306 -56 30 -4 86 -15 125 -23 38 -9 119 -26 179
-38 61 -11 135 -27 165 -34 30 -7 73 -16 95 -19 22 -4 67 -13 100 -20 33 -8
105 -24 160 -36 144 -30 272 -59 335 -75 30 -7 73 -16 95 -19 22 -4 67 -13
100 -21 33 -7 105 -24 160 -36 55 -11 136 -30 180 -40 44 -10 125 -28 180 -39
55 -12 125 -27 155 -35 30 -7 102 -23 160 -35 58 -12 143 -30 190 -40 172 -38
277 -61 370 -80 52 -11 127 -27 165 -35 66 -14 96 -20 225 -45 30 -6 93 -20
140 -31 47 -11 97 -19 111 -19 15 0 45 -6 67 -14 22 -8 66 -17 98 -21 33 -4
82 -13 109 -20 28 -7 82 -19 120 -25 146 -24 232 -40 300 -54 94 -20 172 -34
283 -51 51 -8 110 -19 130 -24 20 -5 62 -12 92 -16 30 -4 82 -13 115 -20 180
-39 545 -52 765 -27 211 24 441 77 625 143 80 29 187 70 204 79 9 5 81 40 161
79 203 99 281 144 484 283 69 47 332 253 386 302 25 23 72 64 104 91 96 83
372 363 471 479 22 26 152 172 172 194 28 30 293 368 313 398 8 13 58 83 111
156 97 134 309 445 309 454 0 2 16 27 35 54 19 27 35 52 35 55 0 3 15 27 33
53 18 26 55 84 82 130 28 45 60 99 72 120 13 20 29 48 36 62 7 14 24 43 38 65
15 22 40 65 56 95 16 30 39 71 51 90 12 19 31 53 43 75 11 22 32 60 46 85 13
25 46 86 73 135 27 50 66 124 89 165 102 190 386 770 516 1055 20 44 44 98 55
120 74 160 90 194 90 200 0 3 12 32 26 63 50 110 87 195 114 262 13 30 32 75
43 100 11 25 26 59 32 75 7 17 22 50 34 75 11 25 21 51 21 58 0 7 9 30 19 50
20 39 36 77 97 232 20 52 45 114 55 137 11 23 19 46 19 50 1 4 9 26 20 48 11
22 19 47 20 56 0 8 4 19 9 25 9 9 53 118 66 164 4 14 14 34 21 45 8 11 14 29
14 40 0 11 6 29 14 40 7 11 17 31 20 45 8 27 42 119 59 160 13 31 43 112 61
165 8 22 24 65 36 95 12 30 28 73 36 95 7 22 25 72 39 110 15 39 33 88 40 110
8 22 26 72 40 110 14 39 30 84 35 100 5 17 21 62 35 100 14 39 41 115 60 170
18 55 39 116 46 135 6 19 20 58 29 85 9 28 23 66 30 85 7 19 18 55 26 80 20
70 88 270 124 370 7 19 18 55 26 80 12 41 22 73 59 180 18 51 50 155 75 240
13 41 31 96 41 122 11 26 19 56 19 67 0 11 6 35 14 53 8 18 24 67 36 108 28
96 58 191 81 258 11 30 19 62 19 73 0 10 6 33 14 51 14 32 32 92 116 378 12
41 26 89 32 105 6 17 16 55 23 87 7 31 16 61 20 68 4 6 16 75 27 153 36 256
25 572 -28 782 -26 104 -55 199 -75 243 -10 23 -19 49 -19 58 0 8 -9 32 -20
52 -10 20 -31 62 -45 92 -14 30 -37 73 -50 95 -13 22 -27 46 -31 54 -43 86
-191 273 -298 379 -82 80 -135 123 -313 252 -65 47 -358 190 -389 190 -8 0
-28 7 -43 15 -32 16 -111 35 -276 67 -206 39 -586 26 -765 -27 -134 -40 -474
-104 -690 -130 -63 -8 -126 -17 -140 -21 -24 -6 -268 -25 -580 -45 -168 -11
-659 -4 -709 11 -17 5 -101 11 -188 15 -87 3 -186 10 -220 16 -34 5 -120 16
-190 24 -206 23 -354 45 -416 60 -32 8 -73 15 -90 15 -18 0 -48 5 -67 11 -19
5 -69 16 -110 24 -131 23 -233 45 -284 60 -26 8 -60 15 -75 15 -14 1 -44 8
-66 16 -22 8 -60 19 -85 23 -41 8 -96 22 -315 82 -38 11 -88 24 -110 29 -22 6
-49 15 -60 20 -11 5 -40 14 -65 20 -50 12 -52 13 -330 105 -243 80 -255 84
-310 105 -43 16 -68 25 -142 51 -18 6 -46 17 -63 24 -16 7 -79 31 -140 54 -60
23 -130 51 -155 61 -25 10 -88 35 -140 56 -110 43 -170 68 -222 95 -20 10 -41
19 -47 19 -5 0 -48 18 -95 40 -47 22 -88 40 -91 40 -3 0 -39 15 -78 34 -40 19
-108 51 -152 71 -140 65 -175 81 -460 223 -154 76 -329 165 -390 197 -60 33
-141 76 -180 97 -38 20 -92 48 -118 62 -46 25 -176 97 -207 116 -8 5 -42 23
-75 41 -33 17 -65 35 -71 40 -6 5 -37 23 -70 40 -32 17 -81 46 -109 63 -27 18
-70 43 -95 55 -25 13 -52 30 -60 36 -8 7 -37 25 -65 39 -27 15 -79 45 -115 68
-36 22 -74 46 -85 52 -11 6 -46 28 -78 49 -31 20 -60 37 -63 37 -2 0 -17 9
-32 19 -26 18 -394 253 -527 336 -35 22 -158 103 -272 180 -114 77 -212 142
-218 144 -5 2 -21 13 -35 25 -14 12 -77 56 -140 99 -63 42 -152 103 -196 135
-141 99 -328 232 -354 252 -14 10 -108 79 -210 153 -102 74 -239 176 -305 225
-250 189 -367 277 -480 357 -31 22 -61 45 -68 50 -14 12 -354 237 -407 269
-49 30 -66 40 -138 83 -35 21 -80 48 -100 60 -21 12 -44 25 -52 28 -8 4 -22
11 -30 16 -8 5 -26 14 -40 21 -14 7 -32 17 -40 24 -18 15 -453 234 -525 264
-27 11 -61 27 -75 34 -28 16 -260 113 -305 128 -16 6 -43 17 -60 24 -33 15
-97 38 -165 60 -24 8 -49 19 -54 24 -6 6 -19 10 -31 10 -11 1 -38 9 -60 20
-22 11 -49 20 -60 20 -11 0 -33 7 -50 16 -16 8 -48 19 -70 24 -38 8 -105 28
-170 51 -16 6 -55 17 -86 23 -31 7 -61 16 -66 19 -6 4 -39 13 -74 22 -35 8
-100 23 -144 34 -160 38 -272 63 -345 76 -41 7 -100 18 -130 24 -195 37 -511
82 -650 92 -63 4 -128 10 -145 13 -154 23 -322 27 -864 23 -367 -3 -601 -8
-626 -15 -22 -6 -114 -15 -205 -21 -91 -6 -181 -16 -201 -21 -20 -6 -83 -14
-140 -19 -114 -10 -278 -34 -379 -57 -36 -8 -77 -14 -92 -14 -14 0 -66 -9
-115 -19 -48 -10 -137 -29 -198 -41 -121 -23 -252 -53 -330 -75 -27 -8 -68
-17 -90 -20 -22 -4 -56 -12 -75 -19 -19 -8 -57 -17 -85 -21 -27 -4 -62 -13
-77 -21 -15 -8 -38 -14 -52 -14 -13 0 -48 -9 -78 -19 -29 -11 -89 -29 -133
-41 -44 -12 -91 -26 -105 -32 -14 -6 -50 -17 -80 -24 -58 -13 -145 -40 -170
-53 -8 -4 -82 -29 -165 -55 -82 -26 -163 -54 -180 -61 -16 -7 -56 -22 -88 -33
-31 -12 -81 -30 -110 -42 -29 -11 -57 -20 -62 -20 -6 -1 -28 -9 -50 -20 -22
-11 -47 -19 -56 -20 -8 0 -24 -7 -35 -15 -10 -8 -25 -15 -33 -15 -8 0 -32 -8
-55 -19 -110 -50 -137 -61 -148 -61 -6 0 -29 -9 -52 -19 -23 -11 -86 -38 -141
-61 -55 -23 -133 -57 -173 -76 -40 -19 -76 -34 -79 -34 -4 0 -38 -15 -77 -34
-39 -18 -111 -52 -161 -75 -131 -61 -653 -322 -770 -385 -55 -29 -131 -70
-170 -91 -87 -46 -183 -98 -272 -149 -66 -38 -116 -67 -158 -90 -18 -10 -128
-76 -360 -216 -42 -25 -125 -76 -185 -115 -60 -38 -122 -77 -137 -85 -46 -25
-305 -196 -553 -365 -47 -31 -94 -66 -106 -76 -11 -11 -24 -19 -27 -19 -4 0
-45 -27 -90 -59 -45 -33 -106 -77 -135 -98 -52 -37 -156 -114 -249 -183 -26
-19 -66 -48 -89 -65 -23 -16 -83 -63 -134 -102 -105 -83 -135 -91 -145 -40 -3
17 -14 57 -25 87 -32 96 -88 284 -95 320 -4 19 -11 40 -15 45 -4 6 -15 35 -23
65 -9 30 -25 87 -37 125 -12 39 -27 94 -35 123 -7 29 -18 58 -23 65 -5 7 -12
32 -16 57 -4 24 -11 49 -15 55 -5 5 -16 35 -24 65 -9 30 -23 78 -31 105 -15
51 -54 178 -82 270 -8 28 -23 79 -34 115 -10 36 -23 80 -29 98 -6 17 -16 47
-22 65 -6 17 -17 57 -25 87 -8 30 -19 64 -24 75 -5 11 -14 38 -19 60 -17 71
-49 172 -60 193 -6 11 -11 31 -11 44 0 13 -6 35 -14 50 -8 15 -17 42 -21 60
-9 44 -46 139 -62 159 -7 8 -13 19 -13 24 0 18 -56 92 -119 158 -68 71 -178
150 -234 169 -18 6 -36 14 -42 18 -5 4 -48 18 -95 31 -194 52 -414 20 -604
-90 -114 -65 -272 -245 -312 -355 -47 -126 -64 -212 -64 -316 0 -118 13 -173
115 -500 7 -25 19 -65 26 -90 6 -25 20 -66 30 -92 11 -26 19 -56 19 -68 0 -12
5 -31 12 -43 6 -12 17 -44 24 -72 7 -27 17 -63 23 -80 6 -16 29 -91 51 -165
22 -74 49 -162 59 -195 10 -33 29 -94 41 -135 13 -41 29 -90 36 -108 8 -18 14
-42 14 -53 0 -11 8 -41 19 -67 10 -26 24 -67 30 -92 7 -25 19 -65 26 -90 8
-25 23 -74 34 -110 11 -36 24 -78 30 -95 6 -16 20 -64 32 -105 12 -41 29 -100
39 -130 9 -30 27 -89 40 -130 12 -41 28 -93 35 -115 7 -22 23 -74 35 -115 12
-41 30 -100 40 -130 9 -30 27 -89 40 -130 12 -41 26 -88 32 -105 5 -16 16 -52
23 -80 7 -27 24 -84 37 -125 26 -78 49 -153 117 -380 23 -74 46 -148 52 -165
6 -16 17 -52 24 -80 7 -27 18 -63 23 -80 6 -16 20 -64 33 -105 12 -41 30 -100
39 -130 29 -93 47 -152 70 -230 12 -41 30 -100 40 -130 9 -30 27 -86 38 -125
12 -38 31 -98 42 -133 11 -34 20 -69 20 -77 0 -8 6 -29 14 -47 7 -18 24 -67
36 -108 12 -41 30 -95 38 -120 9 -25 19 -61 23 -80 4 -19 14 -55 23 -80 8 -25
31 -99 51 -165 20 -66 45 -145 55 -175 10 -30 21 -71 25 -90 4 -19 13 -48 20
-65 7 -16 23 -66 35 -110 12 -44 27 -91 32 -105 6 -14 16 -47 23 -75 7 -27 18
-63 23 -80 6 -16 20 -64 32 -105 13 -41 29 -91 36 -110 8 -19 18 -53 23 -75
10 -41 42 -147 60 -200 5 -16 19 -61 31 -100 39 -132 63 -210 81 -263 11 -30
19 -62 19 -73 0 -10 6 -33 14 -51 7 -18 24 -67 36 -108 12 -41 30 -95 38 -120
9 -25 19 -61 23 -80 4 -19 15 -57 24 -85 16 -46 55 -171 105 -335 11 -36 24
-81 29 -100 5 -19 14 -48 20 -65 5 -16 20 -64 32 -105 12 -41 28 -91 35 -110
8 -19 18 -53 23 -75 5 -22 14 -53 19 -70 6 -16 20 -64 33 -105 12 -41 30 -100
40 -130 9 -30 27 -89 39 -130 12 -41 28 -90 36 -108 8 -18 14 -39 14 -47 0 -8
9 -43 20 -77 11 -35 30 -94 41 -133 11 -38 25 -83 31 -100 6 -16 19 -59 30
-95 10 -36 25 -85 33 -110 8 -25 23 -74 34 -110 52 -170 64 -210 82 -270 11
-36 26 -87 34 -115 7 -27 18 -63 24 -80 21 -60 43 -131 56 -180 7 -27 18 -63
23 -80 6 -16 21 -64 33 -105 12 -41 28 -90 35 -108 8 -18 14 -40 14 -50 1 -9
8 -35 16 -57 8 -22 21 -62 29 -90 7 -27 18 -63 24 -80 6 -16 28 -91 51 -165
22 -74 49 -162 59 -195 10 -33 29 -94 41 -135 12 -41 28 -90 36 -108 8 -18 14
-43 14 -55 0 -12 9 -44 19 -72 10 -27 29 -84 41 -125 12 -41 28 -93 35 -115 7
-22 22 -74 35 -115 12 -41 30 -100 40 -130 10 -30 27 -89 39 -130 12 -41 26
-88 32 -105 21 -61 50 -161 59 -202 5 -24 16 -56 25 -72 8 -17 15 -39 15 -49
0 -11 7 -37 17 -58 9 -22 19 -55 24 -74 4 -19 12 -48 18 -65 17 -50 41 -127
55 -180 13 -47 92 -306 135 -440 10 -33 26 -87 36 -120 9 -33 26 -83 36 -110
10 -28 19 -59 19 -70 0 -11 9 -42 19 -70 10 -27 29 -84 41 -125 12 -41 28 -93
35 -115 7 -22 22 -74 35 -115 32 -106 60 -196 81 -261 11 -31 19 -63 19 -72 0
-9 6 -31 14 -49 8 -18 24 -67 36 -108 12 -41 28 -95 37 -120 8 -25 18 -61 23
-80 5 -19 16 -57 25 -85 34 -100 37 -111 50 -164 8 -30 19 -59 24 -64 6 -6 11
-21 11 -32 0 -12 18 -80 40 -151 23 -71 50 -160 62 -199 11 -38 29 -95 38
-125 10 -30 26 -82 35 -115 9 -33 26 -83 36 -110 10 -28 19 -58 19 -67 0 -9 8
-40 19 -70 10 -29 29 -87 41 -128 13 -41 29 -93 36 -115 7 -22 22 -74 34 -115
13 -41 30 -100 40 -130 17 -55 41 -133 80 -265 12 -38 26 -83 31 -100 6 -16
15 -48 20 -70 5 -22 15 -56 23 -75 7 -19 23 -69 36 -110 12 -41 26 -88 32
-105 5 -16 16 -52 24 -80 7 -27 20 -70 28 -95 17 -55 75 -242 111 -365 15 -49
33 -108 40 -130 7 -22 23 -74 35 -115 12 -41 28 -91 35 -110 7 -19 17 -53 23
-75 10 -36 28 -97 67 -225 42 -132 59 -191 76 -250 10 -36 22 -78 28 -95 23
-67 50 -154 70 -225 12 -41 27 -88 32 -105 6 -16 17 -52 24 -80 7 -27 18 -63
24 -80 20 -59 49 -151 70 -225 12 -41 26 -88 32 -105 6 -16 26 -82 44 -145 35
-121 42 -144 70 -225 10 -27 21 -68 25 -90 5 -22 16 -53 24 -70 9 -16 16 -38
16 -47 0 -17 30 -120 55 -188 7 -19 17 -53 23 -75 5 -22 14 -53 20 -70 6 -16
20 -64 33 -105 12 -41 28 -93 35 -115 7 -22 25 -80 39 -130 15 -49 32 -108 39
-130 7 -22 23 -74 35 -115 13 -41 27 -88 33 -105 6 -16 15 -48 20 -70 6 -22
16 -53 23 -70 8 -16 17 -46 20 -65 3 -19 12 -51 19 -70 17 -47 49 -148 76
-245 12 -44 28 -96 36 -115 8 -19 18 -53 23 -75 10 -41 42 -147 60 -200 41
-122 51 -154 51 -171 1 -10 9 -37 20 -59 11 -22 19 -48 20 -57 0 -18 31 -122
55 -188 7 -19 17 -53 23 -75 5 -22 14 -53 20 -70 6 -16 20 -64 33 -105 12 -41
30 -100 40 -130 9 -30 27 -89 39 -130 21 -70 45 -150 75 -245 7 -22 22 -74 35
-115 12 -41 26 -88 32 -105 5 -16 16 -52 23 -80 7 -27 17 -61 22 -75 6 -14 21
-59 33 -100 12 -41 30 -100 40 -130 25 -83 56 -186 81 -270 12 -41 28 -90 35
-108 8 -18 14 -43 14 -55 0 -12 9 -42 20 -66 11 -24 20 -53 20 -65 1 -11 9
-39 20 -61 11 -22 19 -50 20 -63 0 -13 5 -33 11 -44 7 -12 17 -44 24 -72 7
-28 18 -64 24 -81 5 -16 20 -64 32 -105 12 -41 29 -100 39 -130 26 -81 55
-175 80 -260 12 -41 27 -93 34 -115 7 -22 23 -74 36 -115 12 -41 31 -99 41
-128 11 -30 19 -62 19 -73 0 -10 6 -33 14 -51 8 -18 24 -67 36 -108 12 -41 30
-100 39 -130 10 -30 28 -86 39 -125 12 -38 26 -87 33 -109 18 -60 28 -57 -351
-81 -135 -8 -335 -22 -445 -31 -110 -8 -267 -19 -350 -24 -82 -5 -204 -14
-270 -20 -66 -5 -181 -15 -255 -20 -74 -6 -148 -13 -165 -15 -16 -3 -96 -9
-177 -14 -81 -6 -182 -14 -225 -20 -43 -6 -114 -13 -158 -16 -44 -3 -141 -13
-215 -20 -285 -31 -440 -46 -565 -56 -71 -5 -146 -14 -165 -19 -20 -5 -100
-14 -179 -20 -79 -6 -167 -16 -195 -21 -28 -6 -85 -12 -126 -15 -41 -3 -113
-11 -160 -19 -47 -7 -116 -16 -155 -20 -70 -6 -194 -22 -400 -51 -60 -8 -155
-19 -210 -25 -55 -5 -122 -14 -150 -20 -27 -5 -92 -14 -143 -19 -52 -5 -101
-12 -111 -15 -10 -3 -83 -14 -162 -25 -79 -10 -207 -28 -284 -40 -77 -11 -174
-25 -215 -30 -41 -6 -113 -17 -160 -25 -84 -14 -139 -22 -339 -51 -56 -8 -108
-17 -113 -20 -6 -4 -56 -13 -112 -20 -55 -7 -141 -20 -191 -28 -49 -9 -133
-23 -185 -32 -52 -8 -117 -20 -145 -25 -27 -5 -92 -16 -144 -24 -52 -8 -115
-19 -140 -25 -48 -11 -163 -31 -318 -56 -51 -8 -104 -19 -118 -24 -15 -6 -40
-10 -56 -10 -16 0 -58 -7 -92 -15 -34 -7 -125 -26 -202 -40 -143 -26 -290 -55
-405 -80 -36 -8 -83 -17 -105 -20 -22 -3 -69 -13 -105 -20 -62 -14 -170 -36
-270 -55 -25 -5 -99 -21 -165 -36 -66 -14 -145 -31 -175 -36 -30 -5 -71 -14
-90 -19 -19 -6 -64 -16 -100 -23 -36 -7 -85 -18 -110 -24 -79 -20 -183 -44
-250 -57 -74 -15 -140 -30 -220 -50 -121 -30 -197 -48 -240 -55 -25 -4 -68
-15 -95 -23 -28 -8 -72 -20 -100 -25 -27 -6 -77 -18 -110 -26 -33 -8 -91 -22
-130 -31 -93 -23 -167 -41 -240 -60 -33 -9 -85 -22 -115 -30 -30 -7 -75 -19
-100 -25 -25 -7 -81 -21 -125 -32 -44 -11 -102 -26 -130 -34 -72 -20 -163 -43
-213 -54 -24 -5 -64 -16 -90 -24 -26 -8 -83 -25 -127 -37 -44 -12 -109 -30
-144 -40 -35 -11 -73 -19 -83 -19 -11 0 -29 -5 -41 -12 -12 -6 -47 -17 -77
-24 -30 -7 -68 -17 -85 -22 -16 -6 -66 -21 -110 -33 -44 -12 -107 -30 -140
-40 -33 -10 -94 -27 -135 -39 -161 -45 -294 -85 -368 -111 -30 -11 -61 -19
-70 -19 -10 -1 -35 -9 -57 -20 -22 -11 -44 -20 -50 -20 -5 0 -41 -20 -80 -45
-113 -73 -199 -165 -276 -295 -19 -31 -63 -158 -79 -229 -16 -67 -16 -236 -1
-274 6 -16 11 -40 11 -53 0 -41 79 -222 106 -245 8 -6 14 -17 14 -25 0 -36
254 -254 297 -254 4 0 22 -7 38 -16 67 -35 177 -57 295 -58 114 -1 178 9 295
44 90 28 181 55 270 80 44 12 96 28 115 36 19 7 51 16 70 19 34 7 73 18 190
55 30 10 73 21 95 25 21 4 52 13 67 21 15 8 37 14 50 14 13 0 50 9 83 19 108
35 200 61 215 61 8 0 32 6 55 14 22 7 78 23 125 35 47 12 114 31 150 42 36 10
71 19 78 19 8 0 44 9 80 19 106 30 194 53 372 96 30 8 93 23 140 35 141 35
192 48 265 65 39 9 95 22 125 30 30 7 96 23 145 35 50 11 126 29 170 40 114
27 235 55 350 80 55 11 118 26 140 32 22 6 69 16 105 23 36 7 85 17 110 23 25
6 89 20 143 32 53 11 141 29 195 40 53 12 117 26 142 32 25 5 81 16 125 24 44
7 98 18 120 23 153 36 224 51 250 51 17 0 63 9 104 20 41 11 85 20 98 20 13 0
49 6 81 14 31 8 125 26 207 41 83 15 170 32 195 37 25 6 70 14 100 18 51 7
125 20 310 56 106 20 255 45 325 55 33 4 85 13 115 18 30 6 87 16 125 21 39 6
90 15 115 20 25 6 83 15 130 21 47 5 99 14 115 19 17 5 59 12 95 15 36 4 85
10 110 16 85 18 530 84 660 98 41 5 116 16 165 24 50 9 128 21 175 27 47 6
136 17 199 25 63 8 139 19 170 24 31 5 85 12 121 15 36 4 110 13 165 21 184
27 349 47 452 56 56 5 133 14 170 20 37 6 88 13 113 15 97 9 421 45 535 59 66
8 165 17 220 20 55 4 119 11 143 16 24 5 114 14 200 19 86 6 168 13 182 16 39
10 50 11 305 29 44 3 116 10 160 15 44 6 141 14 215 20 74 5 214 16 310 24 96
9 211 17 255 20 44 3 143 9 220 15 77 6 208 16 290 21 83 6 213 15 290 20 77
5 244 14 370 20 127 6 251 14 277 17 45 5 48 4 67 -28 12 -19 21 -48 21 -65 0
-16 7 -39 15 -50 8 -10 15 -27 15 -37 0 -10 8 -43 19 -75 10 -31 28 -91 41
-132 12 -41 30 -100 40 -130 10 -30 21 -70 25 -88 4 -18 13 -45 21 -60 8 -15
14 -34 14 -43 0 -14 26 -102 51 -174 6 -16 17 -52 24 -80 7 -27 18 -63 23 -80
6 -16 20 -64 32 -105 13 -41 28 -89 36 -106 7 -18 16 -49 20 -70 4 -22 11 -48
17 -58 5 -11 15 -42 22 -70 7 -28 18 -64 24 -81 5 -16 20 -64 32 -105 12 -41
29 -100 39 -130 22 -70 52 -168 75 -245 27 -91 56 -184 76 -243 11 -30 19 -61
19 -69 0 -8 6 -29 14 -46 8 -18 21 -57 29 -87 8 -30 22 -77 31 -105 36 -119
59 -194 76 -255 9 -36 22 -76 28 -90 5 -14 20 -61 32 -105 12 -44 28 -94 35
-111 8 -18 17 -49 20 -70 4 -22 13 -48 20 -59 6 -11 15 -39 18 -61 4 -23 14
-54 22 -70 8 -16 15 -38 15 -49 0 -11 9 -42 19 -70 11 -27 29 -86 41 -130 12
-44 28 -96 35 -115 7 -19 22 -69 34 -110 53 -182 64 -217 76 -245 7 -17 18
-57 25 -88 6 -31 16 -59 21 -62 5 -4 9 -14 9 -23 0 -20 34 -135 61 -207 10
-28 19 -59 19 -70 0 -11 7 -33 15 -48 8 -15 17 -45 21 -65 4 -20 12 -53 19
-72 7 -19 23 -69 35 -110 12 -41 30 -100 40 -130 10 -30 21 -71 25 -90 4 -19
13 -48 20 -65 7 -16 22 -64 35 -105 12 -41 26 -88 32 -105 5 -16 16 -52 23
-80 7 -27 18 -63 24 -80 24 -70 88 -278 125 -410 8 -27 19 -63 25 -80 6 -16
22 -70 36 -120 15 -49 33 -105 41 -123 8 -18 14 -42 14 -53 0 -11 6 -32 14
-47 7 -15 19 -51 25 -81 6 -30 15 -59 20 -65 5 -6 13 -31 19 -56 11 -45 41
-149 60 -205 6 -16 20 -64 32 -105 13 -41 28 -93 35 -115 7 -22 25 -80 40
-130 15 -49 33 -108 40 -130 7 -22 17 -56 20 -75 4 -19 11 -40 16 -46 5 -6 13
-31 18 -55 5 -24 17 -66 26 -94 10 -27 22 -63 27 -80 6 -16 16 -53 23 -82 7
-28 17 -57 21 -65 5 -7 14 -35 20 -63 6 -27 16 -63 23 -80 18 -50 98 -313 153
-500 11 -38 26 -86 33 -105 7 -19 17 -53 23 -75 5 -22 14 -53 20 -70 13 -39
45 -143 67 -220 9 -33 25 -82 35 -110 9 -27 22 -68 28 -90 6 -22 20 -71 32
-110 12 -38 26 -88 32 -110 22 -82 60 -170 116 -270 26 -48 155 -175 220 -217
168 -109 270 -132 572 -131 558 2 1347 35 1750 73 99 9 135 12 319 26 41 3 78
7 82 9 4 3 74 9 155 14 82 6 196 17 254 25 58 8 146 20 195 26 228 27 266 31
355 45 52 8 136 19 185 25 50 6 99 13 109 17 11 3 63 11 115 19 53 7 155 22
226 34 72 12 166 28 210 35 81 12 201 35 330 61 142 28 232 45 290 55 33 5 89
16 125 24 36 8 108 24 160 35 52 12 138 30 190 41 52 11 118 27 145 34 28 8
68 17 90 20 22 4 60 12 85 20 25 7 88 23 140 35 122 27 243 58 300 75 25 7 61
16 80 20 19 4 53 12 75 20 22 7 78 22 125 34 47 12 117 31 155 42 39 11 99 28
135 38 67 19 150 43 280 81 41 12 92 28 113 36 20 8 45 14 55 14 9 0 39 8 67
19 27 10 84 29 125 41 41 13 91 28 110 36 19 7 105 35 190 63 237 77 337 111
430 148 47 18 90 33 95 33 5 0 33 9 62 20 52 21 110 42 220 81 32 12 72 27 88
34 66 27 141 55 150 55 6 1 28 9 50 20 22 11 46 19 53 20 6 0 29 9 49 20 21
11 45 20 53 20 9 0 20 4 25 9 11 10 136 61 150 61 4 0 26 9 49 19 23 10 70 31
106 46 70 29 123 51 155 65 11 5 54 23 95 40 101 42 137 58 190 82 25 12 59
27 75 34 40 17 150 67 230 104 35 17 66 30 69 30 9 0 437 205 691 331 194 96
619 317 695 361 8 5 29 15 45 24 17 8 48 26 70 39 22 13 67 38 100 55 33 18
78 43 100 56 22 13 54 31 70 40 17 8 48 26 70 39 22 13 51 30 65 38 40 22 102
58 135 78 17 10 41 24 55 32 14 8 36 21 50 28 47 27 235 141 305 185 39 24 77
47 85 51 8 4 36 22 62 40 26 18 50 33 53 33 3 0 45 26 93 58 48 31 92 59 97
62 13 6 53 32 370 243 138 92 279 187 315 212 36 25 88 60 116 79 28 19 72 49
97 67 25 19 71 52 101 74 31 22 81 58 111 80 30 22 88 64 128 93 153 112 286
211 385 287 57 44 115 89 130 100 14 11 125 99 246 195 121 96 233 186 250
199 17 13 49 41 71 61 22 20 50 43 61 51 12 8 61 48 109 89 48 41 108 92 133
113 26 21 63 53 83 70 19 18 82 73 138 122 631 549 1319 1220 1865 1820 204
223 481 536 556 625 25 30 72 85 105 124 69 80 141 167 276 333 53 65 113 139
135 164 21 26 48 59 59 75 11 15 29 39 41 53 48 59 352 454 389 506 35 49 96
130 230 307 19 25 35 51 35 56 0 5 7 15 15 22 8 7 41 50 72 97 32 47 74 107
93 134 31 43 163 236 277 404 67 99 258 389 263 401 5 9 126 204 192 306 15
24 32 52 38 63 5 11 30 52 55 90 25 39 49 79 55 90 5 11 20 36 32 57 18 29 98
164 193 326 14 24 94 163 105 185 6 9 14 25 20 35 5 9 18 33 28 52 10 19 28
51 39 70 11 19 37 67 58 105 39 71 59 109 166 310 115 217 446 887 524 1060
15 33 41 89 57 125 17 36 39 83 49 105 10 22 34 74 54 115 19 41 35 79 35 84
0 5 10 30 21 55 33 69 56 121 79 176 12 28 28 63 35 78 8 16 15 33 15 39 0 6
8 29 19 52 10 23 29 66 41 96 12 30 30 73 41 95 10 22 30 72 45 110 14 39 30
74 35 79 5 6 9 18 9 28 0 9 9 37 19 60 11 24 29 70 41 103 12 33 28 74 36 90
15 34 40 104 56 155 5 19 13 40 18 45 4 6 21 51 39 100 17 50 43 122 57 160
14 39 30 88 36 110 6 22 17 49 25 60 7 11 13 29 13 40 1 11 9 38 20 60 11 22
19 47 20 55 0 8 8 37 19 65 28 74 42 115 57 165 22 74 45 143 59 175 7 17 16
47 19 67 4 20 13 50 21 65 8 15 15 34 15 42 0 8 8 39 19 70 10 31 29 90 41
131 12 41 29 95 36 120 7 25 23 79 35 120 12 41 30 102 39 135 10 33 28 96 40
140 12 44 28 103 36 130 7 28 23 86 34 130 12 44 30 112 40 150 10 39 29 108
40 155 12 47 28 110 36 140 8 30 18 75 23 100 5 25 16 74 25 110 9 36 23 97
32 135 43 195 55 248 74 340 12 55 26 120 32 145 6 25 16 77 23 115 7 39 17
93 23 120 6 28 20 97 30 155 11 58 25 132 32 165 14 75 45 259 65 390 9 55 19
114 24 130 5 17 12 62 15 100 4 39 13 104 21 145 17 91 43 282 56 410 5 52 14
111 19 130 5 19 14 97 20 174 6 76 13 143 16 148 3 5 12 84 20 176 7 92 18
208 24 257 14 118 48 546 56 705 9 179 13 245 25 425 14 212 14 1958 0 2170
-11 164 -14 217 -25 435 -9 157 -53 700 -65 800 -6 41 -13 113 -17 160 -8 95
-8 99 -23 225 -6 50 -15 128 -20 175 -10 80 -15 124 -41 318 -6 42 -17 124
-24 182 -8 58 -19 130 -25 160 -6 30 -15 89 -20 130 -11 87 -25 175 -51 315
-10 55 -21 123 -24 150 -3 28 -12 79 -20 115 -8 36 -24 119 -36 185 -12 66
-28 147 -35 180 -8 33 -17 78 -20 100 -10 62 -35 182 -56 266 -10 42 -19 88
-19 102 0 15 -7 47 -16 73 -8 25 -19 67 -24 93 -16 86 -50 234 -94 411 -8 30
-23 91 -34 135 -54 211 -65 253 -77 295 -8 25 -17 61 -20 80 -4 19 -13 55 -21
80 -13 45 -32 111 -74 265 -12 44 -26 94 -32 110 -5 17 -16 53 -24 80 -28 106
-53 184 -63 203 -6 11 -11 30 -11 42 0 12 -8 42 -19 68 -10 26 -23 65 -29 87
-5 22 -15 54 -21 70 -6 17 -31 93 -55 170 -25 77 -50 156 -56 175 -24 70 -47
136 -59 170 -7 19 -19 55 -27 80 -8 25 -18 54 -24 65 -5 11 -14 39 -20 62 -6
23 -15 45 -20 48 -6 3 -10 15 -10 26 0 11 -9 41 -19 67 -21 50 -49 126 -82
219 -12 32 -27 72 -34 88 -19 47 -53 137 -61 165 -3 14 -13 34 -20 45 -8 11
-14 27 -14 37 0 10 -9 35 -20 55 -11 21 -20 43 -20 50 0 7 -9 30 -20 50 -11
21 -20 45 -20 53 0 8 -7 24 -15 34 -8 11 -15 26 -15 34 0 8 -8 33 -19 56 -10
23 -29 66 -41 96 -12 30 -30 73 -40 95 -10 22 -28 67 -41 100 -13 33 -29 67
-36 76 -7 8 -13 21 -13 29 0 7 -9 34 -21 59 -12 25 -27 60 -34 76 -72 166
-222 495 -325 710 -62 130 -316 640 -384 770 -68 131 -106 202 -166 310 -22
39 -46 84 -55 100 -26 52 -91 168 -113 205 -11 19 -35 62 -53 95 -17 33 -36
66 -41 73 -6 7 -18 26 -27 42 -61 112 -75 137 -86 150 -8 8 -19 26 -25 40 -6
14 -20 42 -33 62 -12 20 -47 78 -77 128 -30 50 -62 103 -70 118 -8 15 -30 49
-48 75 -17 26 -32 50 -32 53 0 3 -8 17 -19 32 -10 15 -38 59 -62 97 -144 232
-395 614 -560 853 -35 51 -68 100 -74 109 -5 10 -26 38 -45 65 -19 26 -52 71
-73 100 -309 428 -397 547 -586 791 -164 211 -499 626 -620 767 -35 41 -84 99
-110 129 -711 838 -1582 1720 -2431 2461 -91 79 -178 156 -195 171 -16 16 -72
63 -124 106 -51 43 -132 110 -180 150 -361 301 -1091 862 -1390 1068 -40 28
-94 66 -120 85 -26 19 -54 40 -63 45 -8 6 -48 33 -89 61 -124 85 -591 397
-649 433 -30 18 -80 50 -110 70 -30 20 -64 41 -75 48 -47 29 -125 77 -190 118
-133 83 -239 146 -510 305 -244 143 -262 153 -550 310 -27 15 -68 37 -90 50
-124 70 -942 484 -1140 576 -44 21 -111 52 -150 70 -113 53 -215 99 -285 129
-36 15 -72 31 -80 36 -8 5 -22 12 -30 15 -8 4 -33 14 -55 24 -22 9 -101 43
-175 75 -74 31 -153 65 -175 76 -22 10 -44 19 -49 19 -5 0 -27 8 -50 19 -23
10 -65 28 -93 40 -107 43 -149 60 -203 81 -30 12 -68 27 -85 35 -16 7 -57 23
-90 35 -33 12 -79 30 -103 41 -23 10 -51 19 -60 19 -10 0 -22 4 -28 10 -5 5
-30 16 -54 24 -25 8 -76 26 -115 41 -38 14 -88 32 -110 40 -54 18 -127 44
-145 52 -30 12 -228 80 -370 127 -80 27 -167 57 -195 66 -27 10 -104 35 -170
55 -66 21 -145 45 -175 55 -30 9 -89 27 -130 40 -41 12 -93 28 -115 35 -57 18
-205 60 -410 117 -38 11 -83 24 -100 30 -16 6 -57 16 -90 24 -88 20 -174 42
-225 59 -25 8 -52 15 -60 15 -8 0 -44 8 -80 19 -36 11 -108 29 -160 41 -52 11
-119 28 -148 36 -29 9 -74 19 -100 24 -51 10 -191 41 -262 58 -25 7 -90 21
-145 33 -312 66 -361 76 -445 90 -30 5 -86 15 -125 23 -38 9 -124 25 -190 36
-66 12 -142 25 -170 31 -27 5 -93 16 -145 24 -52 8 -122 19 -155 25 -33 6 -94
15 -135 20 -41 5 -95 14 -120 19 -25 6 -119 20 -210 31 -91 12 -226 29 -300
40 -74 10 -177 21 -228 25 -51 3 -103 10 -116 15 -13 5 -95 14 -181 20 -87 6
-161 13 -166 15 -4 3 -42 7 -86 10 -43 3 -154 12 -248 21 -355 31 -782 56
-1110 66 -449 13 -1393 18 -1425 8z m-120 -9824 c107 -9 234 -23 283 -31 48
-8 101 -15 118 -15 36 0 233 -32 364 -60 186 -39 291 -63 335 -75 25 -8 64
-17 87 -20 24 -4 45 -10 48 -15 3 -5 24 -11 48 -15 23 -4 87 -22 142 -40 55
-18 116 -36 135 -40 19 -4 40 -11 45 -15 6 -4 26 -12 45 -18 19 -6 73 -24 120
-42 47 -17 96 -35 110 -40 14 -4 39 -15 55 -24 17 -9 36 -16 43 -16 8 0 26 -6
40 -14 15 -8 56 -26 92 -41 103 -43 163 -71 355 -167 197 -99 190 -95 349
-187 61 -35 120 -69 131 -75 11 -6 40 -24 65 -40 25 -15 61 -38 80 -50 41 -26
133 -87 245 -164 44 -30 140 -100 214 -156 74 -55 144 -108 155 -116 12 -8 53
-40 92 -70 39 -30 106 -80 148 -110 42 -30 110 -80 151 -110 40 -30 108 -80
149 -110 42 -30 101 -73 131 -95 54 -40 86 -63 240 -174 85 -61 200 -141 330
-229 44 -30 89 -63 101 -73 11 -10 23 -19 26 -19 9 0 169 -109 194 -131 11
-11 23 -19 27 -19 3 0 56 -34 117 -75 61 -41 113 -75 114 -75 2 0 53 -33 113
-72 60 -40 117 -77 126 -83 70 -44 244 -156 297 -191 62 -41 139 -88 278 -171
35 -21 74 -45 87 -53 13 -8 52 -32 87 -53 34 -20 81 -48 103 -62 22 -13 58
-35 80 -47 22 -12 48 -27 57 -33 75 -46 250 -145 256 -145 4 0 14 -6 20 -12
12 -12 106 -66 177 -103 17 -8 62 -33 100 -55 39 -22 84 -47 102 -55 17 -8 34
-19 37 -24 3 -5 18 -12 33 -16 16 -3 35 -12 43 -19 8 -8 58 -36 110 -63 52
-28 145 -76 205 -108 131 -69 109 -58 273 -139 73 -37 141 -71 152 -76 44 -22
61 -30 78 -38 9 -5 51 -25 92 -45 175 -83 309 -145 490 -224 125 -54 145 -63
230 -101 25 -12 86 -37 135 -57 50 -20 107 -45 127 -56 20 -10 43 -19 50 -19
7 -1 31 -9 53 -20 22 -11 47 -19 56 -20 8 0 19 -4 25 -9 5 -5 41 -21 79 -36
39 -14 90 -34 115 -44 89 -36 156 -61 164 -61 4 0 22 -6 39 -14 52 -22 140
-54 177 -65 19 -5 67 -22 105 -36 39 -14 90 -32 115 -39 42 -13 67 -21 150
-52 19 -7 76 -24 125 -39 50 -14 108 -32 130 -40 22 -7 56 -17 75 -20 19 -4
40 -11 46 -16 6 -5 31 -13 55 -18 24 -5 85 -21 134 -36 97 -29 213 -60 284
-76 24 -5 67 -15 95 -23 76 -22 204 -52 266 -65 30 -6 73 -15 95 -20 83 -20
184 -41 295 -61 63 -11 151 -28 195 -37 44 -8 109 -19 145 -23 36 -4 108 -14
160 -23 52 -9 133 -21 180 -27 47 -6 119 -15 160 -20 662 -82 1644 -79 2245 7
61 8 130 17 155 20 25 2 92 12 150 23 109 20 175 32 295 54 78 14 138 28 235
53 36 9 104 19 152 21 74 3 92 0 130 -19 99 -50 170 -134 208 -243 24 -72 28
-231 6 -274 -7 -15 -16 -45 -20 -67 -4 -22 -13 -56 -20 -75 -12 -32 -22 -66
-76 -250 -11 -36 -35 -117 -54 -180 -20 -63 -47 -155 -62 -205 -14 -49 -32
-105 -40 -123 -8 -18 -14 -41 -14 -52 0 -11 -6 -34 -14 -52 -8 -18 -26 -73
-41 -123 -14 -49 -32 -106 -39 -125 -28 -77 -56 -166 -56 -180 -1 -8 -9 -33
-20 -55 -11 -22 -19 -48 -20 -57 0 -10 -6 -32 -14 -50 -17 -40 -32 -84 -94
-288 -22 -70 -47 -143 -61 -175 -10 -22 -34 -94 -56 -165 -15 -49 -28 -89 -55
-165 -10 -27 -30 -86 -45 -130 -14 -44 -30 -89 -35 -100 -5 -11 -21 -56 -35
-100 -14 -44 -33 -92 -40 -107 -8 -14 -15 -32 -15 -39 0 -8 -9 -37 -20 -66
-12 -29 -30 -77 -41 -108 -49 -135 -63 -172 -75 -202 -8 -17 -14 -37 -14 -45
0 -7 -9 -30 -20 -51 -11 -20 -20 -44 -20 -52 0 -8 -9 -34 -19 -57 -11 -24 -30
-70 -42 -103 -12 -33 -27 -73 -34 -90 -7 -16 -23 -57 -35 -90 -12 -33 -30 -78
-41 -101 -10 -23 -19 -46 -19 -52 0 -6 -9 -31 -19 -54 -11 -24 -36 -86 -57
-138 -20 -52 -45 -114 -55 -137 -11 -23 -19 -46 -19 -50 0 -9 -74 -183 -96
-225 -8 -14 -14 -31 -14 -38 0 -6 -12 -37 -26 -68 -34 -75 -48 -106 -75 -172
-34 -83 -53 -128 -93 -213 -20 -43 -36 -81 -36 -84 0 -6 -12 -35 -65 -148 -13
-27 -37 -81 -55 -120 -177 -390 -520 -1079 -637 -1280 -13 -22 -30 -55 -39
-74 -8 -18 -25 -50 -38 -70 -12 -20 -38 -65 -58 -101 -19 -36 -45 -81 -56
-100 -12 -19 -27 -46 -34 -60 -7 -14 -28 -47 -45 -75 -18 -27 -33 -55 -33 -61
0 -6 -7 -18 -16 -25 -9 -7 -20 -22 -26 -34 -16 -33 -41 -77 -79 -135 -20 -30
-67 -102 -104 -160 -37 -58 -74 -114 -81 -125 -8 -11 -36 -54 -63 -95 -48 -72
-85 -124 -209 -291 -206 -275 -370 -468 -577 -674 -180 -180 -377 -343 -549
-452 -46 -29 -275 -145 -351 -178 -56 -24 -169 -54 -288 -75 -132 -24 -206
-23 -357 3 -52 9 -149 26 -215 38 -66 11 -151 27 -190 35 -88 17 -225 42 -331
59 -45 7 -87 15 -93 19 -5 4 -38 11 -73 15 -64 9 -170 30 -288 56 -36 7 -83
17 -105 20 -22 3 -69 12 -105 20 -36 8 -112 24 -170 35 -104 21 -216 45 -380
80 -47 10 -134 29 -195 41 -60 12 -129 28 -153 35 -23 8 -54 14 -69 14 -14 0
-60 9 -102 19 -42 11 -121 29 -176 40 -55 12 -120 27 -145 33 -25 6 -72 16
-105 23 -33 7 -80 18 -105 24 -25 6 -90 20 -145 32 -55 11 -136 29 -180 39
-110 25 -251 55 -370 80 -55 12 -123 28 -151 36 -28 7 -59 14 -70 14 -10 0
-57 8 -104 19 -85 20 -206 46 -355 75 -44 9 -114 23 -155 32 -41 8 -114 22
-163 30 -48 8 -99 19 -113 24 -14 6 -39 10 -56 10 -17 0 -69 9 -117 19 -87 19
-163 32 -326 56 -242 35 -315 46 -370 55 -107 19 -344 45 -640 71 -71 6 -170
15 -220 19 -122 11 -1079 10 -1185 0 -47 -5 -141 -14 -210 -20 -176 -15 -451
-48 -540 -65 -41 -7 -97 -17 -125 -20 -137 -17 -565 -108 -790 -167 -22 -6
-65 -17 -95 -24 -51 -12 -95 -24 -270 -75 -36 -10 -85 -23 -110 -30 -25 -6
-58 -17 -75 -25 -16 -7 -50 -18 -75 -24 -25 -5 -76 -22 -115 -36 -38 -14 -87
-30 -109 -35 -21 -5 -51 -16 -67 -24 -15 -8 -36 -15 -46 -15 -10 -1 -36 -9
-58 -20 -22 -11 -46 -19 -53 -20 -8 0 -28 -6 -45 -14 -28 -12 -130 -50 -252
-93 -22 -8 -53 -20 -70 -27 -16 -7 -57 -23 -90 -36 -33 -12 -73 -28 -90 -35
-16 -7 -55 -22 -85 -35 -30 -12 -73 -30 -95 -41 -22 -10 -44 -19 -49 -19 -5 0
-27 -9 -50 -19 -23 -10 -86 -38 -141 -61 -55 -24 -133 -58 -173 -77 -40 -18
-75 -33 -79 -33 -3 0 -42 -18 -87 -39 -328 -158 -385 -181 -454 -181 -69 0
-189 56 -235 111 -69 80 -112 202 -133 379 -4 30 -11 66 -16 79 -4 13 -13 55
-18 95 -6 39 -17 103 -25 141 -9 39 -25 113 -36 165 -11 52 -25 115 -31 140
-6 25 -16 77 -23 115 -7 39 -18 90 -24 115 -32 128 -44 179 -51 220 -5 25 -16
65 -24 89 -9 24 -16 56 -16 72 0 15 -5 40 -11 56 -6 15 -17 55 -24 88 -7 33
-25 105 -40 160 -15 55 -33 125 -41 155 -20 86 -35 140 -55 203 -11 31 -19 65
-19 75 0 9 -9 41 -20 70 -11 29 -20 62 -20 73 0 12 -6 35 -14 52 -8 18 -19 52
-25 77 -13 56 -46 175 -60 215 -5 17 -19 62 -31 100 -47 157 -63 212 -75 245
-7 19 -22 69 -34 110 -13 41 -31 98 -40 125 -10 28 -31 91 -46 140 -16 50 -32
95 -36 100 -4 6 -10 28 -14 50 -4 22 -12 45 -17 51 -4 7 -15 34 -22 60 -17 62
-34 108 -57 162 -11 23 -19 53 -19 67 0 13 -4 26 -9 29 -5 3 -23 50 -40 103
-18 54 -38 112 -46 128 -7 17 -22 56 -34 88 -53 145 -65 175 -82 213 -11 23
-19 48 -19 56 0 8 -7 23 -15 34 -8 10 -15 26 -15 34 0 8 -9 33 -20 55 -11 22
-19 47 -20 55 0 8 -9 30 -20 48 -11 18 -20 38 -20 45 0 7 -9 30 -20 52 -11 22
-20 45 -20 53 0 8 -7 26 -15 40 -8 15 -26 56 -41 92 -42 105 -55 136 -108 252
-14 31 -26 59 -26 63 0 3 -16 40 -35 83 -20 42 -42 91 -49 107 -14 31 -44 95
-102 220 -151 326 -348 717 -504 1000 -18 33 -44 80 -57 105 -13 25 -35 63
-49 85 -13 22 -29 49 -34 60 -6 11 -21 38 -35 60 -13 22 -29 49 -34 60 -6 11
-22 38 -35 60 -14 22 -42 69 -62 105 -20 36 -58 97 -83 135 -56 85 -61 94 -85
136 -10 19 -50 81 -88 138 -37 57 -68 106 -68 109 0 3 -8 15 -19 26 -10 12
-52 71 -93 131 -112 165 -141 206 -266 375 -110 148 -414 534 -437 555 -7 6
-40 44 -76 85 -429 501 -1050 1076 -1474 1366 -16 11 -55 38 -85 59 -128 91
-274 186 -395 258 -11 6 -43 26 -71 44 -29 18 -63 37 -75 43 -13 6 -55 29 -94
50 -38 22 -143 76 -232 120 -205 103 -310 132 -460 128 -59 -2 -106 1 -111 7
-5 6 -17 37 -26 70 -10 33 -27 83 -37 110 -10 28 -19 59 -19 70 0 11 -7 33
-15 48 -8 15 -17 45 -21 65 -4 20 -12 53 -19 72 -13 34 -35 105 -77 245 -11
39 -29 95 -38 125 -10 30 -26 81 -36 113 -22 73 -14 88 52 103 99 21 192 75
374 219 63 50 158 125 210 166 90 71 447 335 555 411 28 19 82 57 120 84 129
90 179 124 295 201 248 164 455 298 534 344 32 18 73 43 90 54 53 33 214 129
243 145 16 9 46 27 68 41 22 14 69 42 105 61 141 77 188 102 250 138 36 21
101 56 145 79 44 24 87 46 95 51 8 4 26 13 40 19 14 6 32 15 40 19 44 25 243
125 270 136 8 3 22 10 30 15 8 5 26 14 40 20 14 6 32 15 40 20 8 5 26 14 40
20 14 6 32 15 40 20 28 17 107 51 117 51 6 0 16 6 22 14 7 8 27 17 45 20 19 4
39 13 46 21 7 8 18 15 24 15 6 0 28 9 49 20 20 11 41 20 47 20 5 0 42 15 82
33 40 19 98 44 128 56 30 13 73 31 95 42 22 10 45 19 50 19 6 1 28 9 50 20 22
11 48 19 57 20 9 0 19 4 23 9 3 5 22 15 43 21 20 6 46 15 57 20 11 5 52 21 90
35 39 14 93 35 120 45 28 11 56 20 62 20 7 0 32 8 55 19 48 20 90 36 158 56
77 24 144 47 177 61 17 8 37 14 45 14 7 1 31 8 53 16 22 8 58 19 80 24 22 5
63 16 90 25 84 27 198 58 380 104 224 57 279 69 415 96 36 7 90 18 120 24 128
26 229 44 295 51 39 4 88 13 110 18 22 6 69 13 105 17 36 4 137 15 225 25 88
10 237 24 330 30 94 6 188 12 210 14 101 9 726 -3 905 -18z"/>
<path d="M27030 31896 c-36 -7 -95 -23 -130 -36 -76 -27 -217 -117 -276 -175
-64 -63 -141 -180 -171 -259 -46 -122 -47 -138 -52 -681 -4 -286 -10 -526 -14
-532 -13 -20 -1550 -19 -1566 1 -7 8 -13 78 -15 187 -5 221 -13 287 -41 374
-48 148 -128 265 -247 365 -72 59 -218 140 -255 140 -10 0 -31 7 -46 15 -15 8
-45 17 -65 20 -20 4 -50 13 -67 20 -16 8 -70 26 -120 40 -118 35 -178 54 -243
77 -43 15 -84 18 -216 18 -145 0 -170 -3 -232 -24 -147 -50 -278 -130 -351
-215 -38 -45 -123 -168 -123 -179 0 -4 -7 -20 -16 -37 -15 -29 -45 -120 -58
-178 -4 -16 -7 -295 -7 -620 0 -568 1 -595 21 -656 11 -35 20 -69 20 -75 0 -6
13 -36 30 -66 16 -30 34 -64 39 -75 19 -44 91 -127 245 -285 89 -91 226 -232
305 -315 155 -162 236 -246 611 -636 135 -139 281 -292 325 -338 71 -74 126
-120 190 -158 48 -29 143 -73 157 -73 9 0 33 -8 54 -17 37 -17 275 -18 4554
-18 l4515 0 75 24 c69 22 131 49 205 88 31 16 216 200 620 614 410 421 459
472 488 508 16 20 126 135 245 256 120 121 234 240 254 265 48 60 110 180 139
271 l24 74 0 620 0 620 -27 75 c-40 114 -54 144 -101 211 -65 96 -121 153
-200 206 -163 109 -247 133 -455 133 -157 0 -202 -7 -332 -55 -19 -8 -75 -25
-125 -40 -49 -14 -105 -33 -123 -41 -18 -8 -39 -14 -46 -14 -25 0 -171 -51
-236 -82 -199 -97 -342 -270 -409 -494 -18 -62 -21 -96 -21 -282 0 -116 -4
-222 -10 -236 l-10 -26 -779 0 c-761 0 -781 0 -791 19 -6 13 -10 191 -10 508
-1 268 -5 506 -10 528 -5 22 -14 62 -19 89 -14 64 -79 192 -135 265 -48 62
-153 161 -172 161 -6 0 -17 6 -23 14 -12 14 -79 49 -156 80 -56 23 -197 46
-280 46 -93 -1 -328 -53 -392 -88 -12 -7 -32 -12 -45 -12 -13 -1 -41 -9 -63
-20 -22 -11 -47 -19 -55 -20 -33 0 -239 -74 -320 -113 -69 -34 -103 -59 -176
-132 -88 -87 -165 -199 -181 -263 -3 -15 -16 -47 -27 -72 -20 -43 -21 -67 -26
-508 -4 -397 -7 -464 -20 -472 -9 -6 -317 -10 -781 -10 -624 0 -769 2 -778 13
-7 9 -12 141 -14 408 -3 305 -7 416 -20 491 -9 53 -21 105 -26 115 -5 10 -21
44 -36 75 -38 86 -81 145 -161 224 -66 65 -200 153 -257 169 -12 3 -38 12 -57
20 -19 7 -69 23 -110 35 -74 22 -167 51 -225 71 -16 6 -52 17 -80 25 -27 7
-70 19 -95 27 -117 38 -262 46 -390 23z"/>
</g>
</svg>
